<svg xmlns="http://www.w3.org/2000/svg" xmlns:xlink="http://www.w3.org/1999/xlink" width="500" zoomAndPan="magnify" viewBox="0 0 375 374.999991" height="500" preserveAspectRatio="xMidYMid meet" version="1.0"><defs><clipPath id="a7b2e25cd7"><path d="M 126.066406 125.914062 L 249.066406 125.914062 L 249.066406 248.914062 L 126.066406 248.914062 Z M 126.066406 125.914062 " clip-rule="nonzero"/></clipPath></defs><g clip-path="url(#a7b2e25cd7)"><path fill="#000000" d="M 187.558594 215.796875 C 184.765625 223.097656 180.640625 234.128906 175.171875 248.847656 C 164.269531 221.636719 147.894531 180.6875 126.066406 125.980469 C 131.519531 125.980469 139.707031 125.980469 150.628906 125.980469 C 158.738281 145.886719 171.046875 175.824219 187.558594 215.796875 Z M 237.066406 215.796875 C 234.273438 223.097656 230.148438 234.128906 224.679688 248.847656 C 213.777344 221.636719 197.402344 180.6875 175.574219 125.980469 C 181.027344 125.980469 189.214844 125.980469 200.136719 125.980469 C 208.382812 145.886719 220.710938 175.824219 237.066406 215.796875 Z M 224.101562 138.335938 C 224.101562 135.011719 225.371094 132.167969 227.894531 129.765625 C 230.285156 127.246094 233.214844 125.980469 236.679688 125.980469 C 240.011719 125.980469 242.863281 127.246094 245.273438 129.765625 C 247.796875 132.148438 249.066406 135.011719 249.066406 138.335938 C 249.066406 141.792969 247.796875 144.714844 245.273438 147.097656 C 242.882812 149.480469 240.011719 150.671875 236.679688 150.671875 C 233.214844 150.671875 230.285156 149.539062 227.894531 147.289062 C 225.351562 144.90625 224.101562 141.910156 224.101562 138.335938 Z M 224.101562 138.335938 " fill-opacity="1" fill-rule="nonzero"/></g></svg>