<svg xmlns="http://www.w3.org/2000/svg" xmlns:xlink="http://www.w3.org/1999/xlink" width="500" zoomAndPan="magnify" viewBox="0 0 375 374.999991" height="500" preserveAspectRatio="xMidYMid meet" version="1.0"><defs><g/><clipPath id="ffb08146c2"><path d="M 126.066406 103.605469 L 249.066406 103.605469 L 249.066406 226.605469 L 126.066406 226.605469 Z M 126.066406 103.605469 " clip-rule="nonzero"/></clipPath></defs><g clip-path="url(#ffb08146c2)"><path fill="#000000" d="M 187.558594 193.488281 C 184.765625 200.789062 180.640625 211.820312 175.171875 226.539062 C 164.269531 199.328125 147.894531 158.378906 126.066406 103.671875 C 131.519531 103.671875 139.707031 103.671875 150.628906 103.671875 C 158.738281 123.578125 171.046875 153.519531 187.558594 193.488281 Z M 237.066406 193.488281 C 234.273438 200.789062 230.148438 211.820312 224.679688 226.539062 C 213.777344 199.328125 197.402344 158.378906 175.574219 103.671875 C 181.027344 103.671875 189.214844 103.671875 200.136719 103.671875 C 208.382812 123.578125 220.710938 153.519531 237.066406 193.488281 Z M 224.101562 116.027344 C 224.101562 112.703125 225.371094 109.859375 227.894531 107.457031 C 230.285156 104.941406 233.214844 103.671875 236.679688 103.671875 C 240.011719 103.671875 242.863281 104.941406 245.273438 107.457031 C 247.796875 109.839844 249.066406 112.703125 249.066406 116.027344 C 249.066406 119.488281 247.796875 122.40625 245.273438 124.789062 C 242.882812 127.171875 240.011719 128.363281 236.679688 128.363281 C 233.214844 128.363281 230.285156 127.230469 227.894531 124.980469 C 225.351562 122.597656 224.101562 119.601562 224.101562 116.027344 Z M 224.101562 116.027344 " fill-opacity="1" fill-rule="nonzero"/></g><g fill="#8c52ff" fill-opacity="1"><g transform="translate(127.575428, 244.122733)"><g><path d="M 7.859375 -11.296875 C 7.585938 -11.671875 7.273438 -11.960938 6.921875 -12.171875 C 6.578125 -12.378906 6.164062 -12.484375 5.6875 -12.484375 C 5.195312 -12.484375 4.78125 -12.320312 4.4375 -12 C 4.09375 -11.6875 3.921875 -11.304688 3.921875 -10.859375 C 3.921875 -10.453125 4.085938 -10.101562 4.421875 -9.8125 C 4.765625 -9.519531 5.269531 -9.25 5.9375 -9 C 7.09375 -8.519531 7.910156 -8.0625 8.390625 -7.625 C 8.867188 -7.1875 9.203125 -6.71875 9.390625 -6.21875 C 9.578125 -5.726562 9.671875 -5.179688 9.671875 -4.578125 C 9.671875 -3.097656 9.234375 -1.898438 8.359375 -0.984375 C 7.484375 -0.0664062 6.332031 0.390625 4.90625 0.390625 C 3.90625 0.390625 3.035156 0.128906 2.296875 -0.390625 C 1.554688 -0.910156 0.9375 -1.59375 0.4375 -2.4375 L 2.265625 -4.234375 C 2.484375 -3.617188 2.835938 -3.109375 3.328125 -2.703125 C 3.816406 -2.304688 4.332031 -2.109375 4.875 -2.109375 C 5.414062 -2.109375 5.863281 -2.300781 6.21875 -2.6875 C 6.570312 -3.082031 6.75 -3.585938 6.75 -4.203125 C 6.75 -4.742188 6.582031 -5.175781 6.25 -5.5 C 5.914062 -5.820312 5.421875 -6.109375 4.765625 -6.359375 C 3.316406 -6.910156 2.328125 -7.492188 1.796875 -8.109375 C 1.265625 -8.722656 1 -9.53125 1 -10.53125 C 1 -11.300781 1.175781 -12.019531 1.53125 -12.6875 C 1.894531 -13.351562 2.398438 -13.882812 3.046875 -14.28125 C 3.703125 -14.675781 4.429688 -14.875 5.234375 -14.875 C 5.929688 -14.875 6.664062 -14.710938 7.4375 -14.390625 C 8.21875 -14.078125 8.800781 -13.703125 9.1875 -13.265625 Z M 7.859375 -11.296875 "/></g></g></g><g fill="#8c52ff" fill-opacity="1"><g transform="translate(140.660257, 244.122733)"><g><path d="M 4.984375 -14.484375 C 6.609375 -14.484375 7.832031 -14.109375 8.65625 -13.359375 C 9.476562 -12.617188 9.890625 -11.5 9.890625 -10 C 9.890625 -8.457031 9.484375 -7.304688 8.671875 -6.546875 C 7.867188 -5.796875 6.765625 -5.421875 5.359375 -5.421875 L 3.859375 -5.421875 L 3.859375 0 L 1.03125 0 L 1.03125 -14.484375 Z M 3.859375 -7.765625 L 4.484375 -7.765625 C 5.359375 -7.765625 6 -7.914062 6.40625 -8.21875 C 6.8125 -8.519531 7.015625 -9.117188 7.015625 -10.015625 C 7.015625 -10.804688 6.816406 -11.359375 6.421875 -11.671875 C 6.035156 -11.984375 5.398438 -12.140625 4.515625 -12.140625 L 3.859375 -12.140625 Z M 3.859375 -7.765625 "/></g></g></g><g fill="#8c52ff" fill-opacity="1"><g transform="translate(153.783509, 244.122733)"><g><path d="M 8.53125 -14.484375 L 8.53125 -12.03125 L 3.859375 -12.03125 L 3.859375 -8.84375 L 8.359375 -8.84375 L 8.359375 -6.375 L 3.859375 -6.375 L 3.859375 -2.453125 L 8.53125 -2.453125 L 8.53125 0 L 1.03125 0 L 1.03125 -14.484375 Z M 8.53125 -14.484375 "/></g></g></g><g fill="#8c52ff" fill-opacity="1"><g transform="translate(166.138301, 244.122733)"><g><path d="M 3.078125 -14.875 L 10.703125 -4.75 L 10.75 -4.75 L 10.75 -14.484375 L 13.5625 -14.484375 L 13.5625 0.28125 L 11.53125 0.28125 L 3.90625 -9.84375 L 3.859375 -9.84375 L 3.859375 0 L 1.03125 0 L 1.03125 -14.875 Z M 3.078125 -14.875 "/></g></g></g><g fill="#8c52ff" fill-opacity="1"><g transform="translate(183.699397, 244.122733)"><g><path d="M 5.171875 -14.484375 C 6.015625 -14.484375 6.863281 -14.320312 7.71875 -14 C 8.582031 -13.6875 9.347656 -13.195312 10.015625 -12.53125 C 10.691406 -11.863281 11.203125 -11.070312 11.546875 -10.15625 C 11.890625 -9.238281 12.0625 -8.257812 12.0625 -7.21875 C 12.0625 -5.820312 11.75 -4.570312 11.125 -3.46875 C 10.507812 -2.363281 9.671875 -1.507812 8.609375 -0.90625 C 7.546875 -0.300781 6.394531 0 5.15625 0 L 1.03125 0 L 1.03125 -14.484375 Z M 3.859375 -2.453125 L 4.265625 -2.453125 C 5.898438 -2.453125 7.117188 -2.851562 7.921875 -3.65625 C 8.734375 -4.457031 9.140625 -5.65625 9.140625 -7.25 C 9.140625 -8.8125 8.742188 -10 7.953125 -10.8125 C 7.160156 -11.625 5.929688 -12.03125 4.265625 -12.03125 L 3.859375 -12.03125 Z M 3.859375 -2.453125 "/></g></g></g><g fill="#000000" fill-opacity="1"><g transform="translate(199.093793, 244.122733)"><g><path d="M 10.203125 -14.6875 L 13.203125 -4.609375 L 13.234375 -4.609375 L 16.09375 -14.484375 L 19.046875 -14.484375 L 14.140625 0.28125 L 12.0625 0.28125 L 9.1875 -9.1875 L 9.140625 -9.1875 L 6.421875 0.28125 L 4.34375 0.28125 L -0.265625 -14.484375 L 2.6875 -14.484375 L 5.609375 -4.609375 L 5.65625 -4.609375 L 8.53125 -14.6875 Z M 10.203125 -14.6875 "/></g></g></g><g fill="#000000" fill-opacity="1"><g transform="translate(220.842986, 244.122733)"><g><path d="M 3.859375 -14.484375 L 3.859375 0 L 1.03125 0 L 1.03125 -14.484375 Z M 3.859375 -14.484375 "/></g></g></g><g fill="#000000" fill-opacity="1"><g transform="translate(228.702295, 244.122733)"><g><path d="M 7.859375 -11.296875 C 7.585938 -11.671875 7.273438 -11.960938 6.921875 -12.171875 C 6.578125 -12.378906 6.164062 -12.484375 5.6875 -12.484375 C 5.195312 -12.484375 4.78125 -12.320312 4.4375 -12 C 4.09375 -11.6875 3.921875 -11.304688 3.921875 -10.859375 C 3.921875 -10.453125 4.085938 -10.101562 4.421875 -9.8125 C 4.765625 -9.519531 5.269531 -9.25 5.9375 -9 C 7.09375 -8.519531 7.910156 -8.0625 8.390625 -7.625 C 8.867188 -7.1875 9.203125 -6.71875 9.390625 -6.21875 C 9.578125 -5.726562 9.671875 -5.179688 9.671875 -4.578125 C 9.671875 -3.097656 9.234375 -1.898438 8.359375 -0.984375 C 7.484375 -0.0664062 6.332031 0.390625 4.90625 0.390625 C 3.90625 0.390625 3.035156 0.128906 2.296875 -0.390625 C 1.554688 -0.910156 0.9375 -1.59375 0.4375 -2.4375 L 2.265625 -4.234375 C 2.484375 -3.617188 2.835938 -3.109375 3.328125 -2.703125 C 3.816406 -2.304688 4.332031 -2.109375 4.875 -2.109375 C 5.414062 -2.109375 5.863281 -2.300781 6.21875 -2.6875 C 6.570312 -3.082031 6.75 -3.585938 6.75 -4.203125 C 6.75 -4.742188 6.582031 -5.175781 6.25 -5.5 C 5.914062 -5.820312 5.421875 -6.109375 4.765625 -6.359375 C 3.316406 -6.910156 2.328125 -7.492188 1.796875 -8.109375 C 1.265625 -8.722656 1 -9.53125 1 -10.53125 C 1 -11.300781 1.175781 -12.019531 1.53125 -12.6875 C 1.894531 -13.351562 2.398438 -13.882812 3.046875 -14.28125 C 3.703125 -14.675781 4.429688 -14.875 5.234375 -14.875 C 5.929688 -14.875 6.664062 -14.710938 7.4375 -14.390625 C 8.21875 -14.078125 8.800781 -13.703125 9.1875 -13.265625 Z M 7.859375 -11.296875 "/></g></g></g><g fill="#000000" fill-opacity="1"><g transform="translate(241.787125, 244.122733)"><g><path d="M 8.53125 -14.484375 L 8.53125 -12.03125 L 3.859375 -12.03125 L 3.859375 -8.84375 L 8.359375 -8.84375 L 8.359375 -6.375 L 3.859375 -6.375 L 3.859375 -2.453125 L 8.53125 -2.453125 L 8.53125 0 L 1.03125 0 L 1.03125 -14.484375 Z M 8.53125 -14.484375 "/></g></g></g></svg>