<svg xmlns="http://www.w3.org/2000/svg" xmlns:xlink="http://www.w3.org/1999/xlink" width="500" zoomAndPan="magnify" viewBox="0 0 375 374.999991" height="500" preserveAspectRatio="xMidYMid meet" version="1.0"><defs><g/><clipPath id="a4751d4b79"><path d="M 67.136719 168.542969 L 104.636719 168.542969 L 104.636719 206.792969 L 67.136719 206.792969 Z M 67.136719 168.542969 " clip-rule="nonzero"/></clipPath></defs><g clip-path="url(#a4751d4b79)"><path fill="#030c26" d="M 85.882812 196.496094 C 85.03125 198.765625 83.773438 202.195312 82.105469 206.773438 C 78.78125 198.3125 73.789062 185.578125 67.136719 168.566406 C 68.796875 168.566406 71.292969 168.566406 74.625 168.566406 C 77.097656 174.753906 80.851562 184.066406 85.882812 196.496094 Z M 100.976562 196.496094 C 100.125 198.765625 98.867188 202.195312 97.199219 206.773438 C 93.875 198.3125 88.882812 185.578125 82.230469 168.566406 C 83.890625 168.566406 86.386719 168.566406 89.71875 168.566406 C 92.230469 174.753906 95.992188 184.066406 100.976562 196.496094 Z M 97.023438 172.40625 C 97.023438 171.375 97.414062 170.488281 98.183594 169.742188 C 98.910156 168.960938 99.804688 168.566406 100.859375 168.566406 C 101.875 168.566406 102.746094 168.960938 103.480469 169.742188 C 104.25 170.484375 104.636719 171.375 104.636719 172.40625 C 104.636719 173.484375 104.25 174.390625 103.480469 175.132812 C 102.75 175.875 101.875 176.242188 100.859375 176.242188 C 99.804688 176.242188 98.910156 175.890625 98.183594 175.191406 C 97.40625 174.449219 97.023438 173.519531 97.023438 172.40625 Z M 97.023438 172.40625 " fill-opacity="1" fill-rule="nonzero"/></g><g fill="#8c52ff" fill-opacity="1"><g transform="translate(111.756405, 196.874987)"><g><path d="M 13.25 -19.234375 C 12.71875 -20.160156 12.128906 -20.820312 11.484375 -21.21875 C 10.835938 -21.625 10.0625 -21.828125 9.15625 -21.828125 C 8 -21.828125 7.046875 -21.46875 6.296875 -20.75 C 5.546875 -20.03125 5.171875 -19.15625 5.171875 -18.125 C 5.171875 -17.320312 5.476562 -16.632812 6.09375 -16.0625 C 6.71875 -15.488281 7.472656 -15 8.359375 -14.59375 C 9.253906 -14.195312 10.054688 -13.851562 10.765625 -13.5625 C 11.484375 -13.269531 12.316406 -12.828125 13.265625 -12.234375 C 14.222656 -11.640625 14.953125 -10.898438 15.453125 -10.015625 C 15.960938 -9.128906 16.21875 -8.113281 16.21875 -6.96875 C 16.21875 -5.65625 15.890625 -4.425781 15.234375 -3.28125 C 14.585938 -2.144531 13.679688 -1.242188 12.515625 -0.578125 C 11.359375 0.078125 10.09375 0.40625 8.71875 0.40625 C 6.832031 0.40625 5.21875 -0.144531 3.875 -1.25 C 2.539062 -2.363281 1.671875 -3.867188 1.265625 -5.765625 L 3.859375 -6.5 C 4.078125 -5.1875 4.625 -4.117188 5.5 -3.296875 C 6.375 -2.472656 7.425781 -2.0625 8.65625 -2.0625 C 9.976562 -2.0625 11.125 -2.515625 12.09375 -3.421875 C 13.070312 -4.328125 13.5625 -5.425781 13.5625 -6.71875 C 13.5625 -7.851562 13.191406 -8.785156 12.453125 -9.515625 C 11.710938 -10.242188 10.359375 -11 8.390625 -11.78125 C 6.429688 -12.5625 4.957031 -13.4375 3.96875 -14.40625 C 2.988281 -15.382812 2.5 -16.65625 2.5 -18.21875 C 2.5 -19.988281 3.15625 -21.441406 4.46875 -22.578125 C 5.78125 -23.722656 7.351562 -24.296875 9.1875 -24.296875 C 10.539062 -24.296875 11.738281 -23.976562 12.78125 -23.34375 C 13.832031 -22.71875 14.695312 -21.800781 15.375 -20.59375 Z M 13.25 -19.234375 "/></g></g></g><g fill="#8c52ff" fill-opacity="1"><g transform="translate(134.382223, 196.874987)"><g><path d="M 6.59375 -23.890625 C 8.6875 -23.890625 10.269531 -23.640625 11.34375 -23.140625 C 12.414062 -22.648438 13.285156 -21.875 13.953125 -20.8125 C 14.617188 -19.757812 14.953125 -18.566406 14.953125 -17.234375 C 14.953125 -15.296875 14.3125 -13.679688 13.03125 -12.390625 C 11.757812 -11.097656 9.84375 -10.453125 7.28125 -10.453125 L 5.0625 -10.453125 L 5.0625 0 L 2.40625 0 L 2.40625 -23.890625 Z M 5.0625 -12.921875 L 6.5 -12.921875 C 8.59375 -12.921875 10.082031 -13.28125 10.96875 -14 C 11.851562 -14.71875 12.296875 -15.796875 12.296875 -17.234375 C 12.296875 -18.691406 11.859375 -19.753906 10.984375 -20.421875 C 10.109375 -21.085938 8.5625 -21.421875 6.34375 -21.421875 L 5.0625 -21.421875 Z M 5.0625 -12.921875 "/></g></g></g><g fill="#8c52ff" fill-opacity="1"><g transform="translate(155.233543, 196.874987)"><g><path d="M 14.796875 -23.890625 L 14.796875 -21.421875 L 5.0625 -21.421875 L 5.0625 -14.328125 L 14.515625 -14.328125 L 14.515625 -11.84375 L 5.0625 -11.84375 L 5.0625 -2.46875 L 14.796875 -2.46875 L 14.796875 0 L 2.40625 0 L 2.40625 -23.890625 Z M 14.796875 -23.890625 "/></g></g></g><g fill="#8c52ff" fill-opacity="1"><g transform="translate(177.067181, 196.874987)"><g><path d="M 2.5625 -24.90625 L 21.203125 -5.390625 L 21.203125 -23.890625 L 23.859375 -23.890625 L 23.859375 1.078125 L 5.234375 -18.40625 L 5.234375 0 L 2.5625 0 Z M 2.5625 -24.90625 "/></g></g></g><g fill="#8c52ff" fill-opacity="1"><g transform="translate(208.407042, 196.874987)"><g><path d="M 7.453125 -23.890625 C 9.640625 -23.890625 11.523438 -23.554688 13.109375 -22.890625 C 14.703125 -22.222656 16.023438 -21.320312 17.078125 -20.1875 C 18.128906 -19.0625 18.910156 -17.789062 19.421875 -16.375 C 19.929688 -14.96875 20.1875 -13.457031 20.1875 -11.84375 C 20.1875 -9.800781 19.710938 -7.894531 18.765625 -6.125 C 17.828125 -4.363281 16.4375 -2.898438 14.59375 -1.734375 C 12.757812 -0.578125 10.367188 0 7.421875 0 L 2.40625 0 L 2.40625 -23.890625 Z M 7.609375 -2.46875 C 9.066406 -2.46875 10.382812 -2.679688 11.5625 -3.109375 C 12.75 -3.546875 13.796875 -4.195312 14.703125 -5.0625 C 15.609375 -5.9375 16.300781 -6.972656 16.78125 -8.171875 C 17.269531 -9.378906 17.515625 -10.640625 17.515625 -11.953125 C 17.515625 -13.679688 17.128906 -15.25 16.359375 -16.65625 C 15.585938 -18.0625 14.488281 -19.207031 13.0625 -20.09375 C 11.644531 -20.976562 9.726562 -21.421875 7.3125 -21.421875 L 5.0625 -21.421875 L 5.0625 -2.46875 Z M 7.609375 -2.46875 "/></g></g></g><g fill="#000000" fill-opacity="1"><g transform="translate(234.814991, 196.874987)"><g><path d="M 16.828125 -24.203125 L 21.765625 -7.609375 L 21.828125 -7.609375 L 26.515625 -23.890625 L 31.40625 -23.890625 L 23.328125 0.46875 L 19.90625 0.46875 L 15.140625 -15.140625 L 15.078125 -15.140625 L 10.578125 0.46875 L 7.15625 0.46875 L -0.4375 -23.890625 L 4.4375 -23.890625 L 9.25 -7.609375 L 9.3125 -7.609375 L 14.0625 -24.203125 Z M 16.828125 -24.203125 "/></g></g></g><g fill="#000000" fill-opacity="1"><g transform="translate(270.686153, 196.874987)"><g><path d="M 6.375 -23.890625 L 6.375 0 L 1.71875 0 L 1.71875 -23.890625 Z M 6.375 -23.890625 "/></g></g></g><g fill="#000000" fill-opacity="1"><g transform="translate(283.647299, 196.874987)"><g><path d="M 12.953125 -18.625 C 12.515625 -19.238281 12.003906 -19.71875 11.421875 -20.0625 C 10.835938 -20.414062 10.15625 -20.59375 9.375 -20.59375 C 8.570312 -20.59375 7.882812 -20.328125 7.3125 -19.796875 C 6.75 -19.273438 6.46875 -18.644531 6.46875 -17.90625 C 6.46875 -17.226562 6.742188 -16.648438 7.296875 -16.171875 C 7.859375 -15.703125 8.691406 -15.253906 9.796875 -14.828125 C 11.691406 -14.046875 13.035156 -13.296875 13.828125 -12.578125 C 14.617188 -11.859375 15.164062 -11.085938 15.46875 -10.265625 C 15.78125 -9.441406 15.9375 -8.535156 15.9375 -7.546875 C 15.9375 -5.109375 15.21875 -3.132812 13.78125 -1.625 C 12.34375 -0.113281 10.441406 0.640625 8.078125 0.640625 C 6.429688 0.640625 5 0.210938 3.78125 -0.640625 C 2.570312 -1.503906 1.554688 -2.632812 0.734375 -4.03125 L 3.734375 -6.96875 C 4.097656 -5.957031 4.679688 -5.125 5.484375 -4.46875 C 6.285156 -3.8125 7.140625 -3.484375 8.046875 -3.484375 C 8.929688 -3.484375 9.664062 -3.804688 10.25 -4.453125 C 10.832031 -5.097656 11.125 -5.925781 11.125 -6.9375 C 11.125 -7.820312 10.847656 -8.53125 10.296875 -9.0625 C 9.742188 -9.59375 8.929688 -10.066406 7.859375 -10.484375 C 5.472656 -11.390625 3.835938 -12.347656 2.953125 -13.359375 C 2.078125 -14.378906 1.640625 -15.710938 1.640625 -17.359375 C 1.640625 -18.628906 1.9375 -19.8125 2.53125 -20.90625 C 3.125 -22.007812 3.957031 -22.890625 5.03125 -23.546875 C 6.113281 -24.203125 7.3125 -24.53125 8.625 -24.53125 C 9.78125 -24.53125 11 -24.265625 12.28125 -23.734375 C 13.5625 -23.203125 14.515625 -22.578125 15.140625 -21.859375 Z M 12.953125 -18.625 "/></g></g></g><g fill="#000000" fill-opacity="1"><g transform="translate(305.227427, 196.874987)"><g><path d="M 14.0625 -23.890625 L 14.0625 -19.84375 L 6.375 -19.84375 L 6.375 -14.578125 L 13.78125 -14.578125 L 13.78125 -10.515625 L 6.375 -10.515625 L 6.375 -4.0625 L 14.0625 -4.0625 L 14.0625 0 L 1.71875 0 L 1.71875 -23.890625 Z M 14.0625 -23.890625 "/></g></g></g></svg>